# Exported from Wings 3D 2.0.3
mtllib head.mtl
o Cube3_copy5
#60 vertices, 116 faces
v 0.44233370 -0.36822222 -0.64733333
v 0.44233370 -0.36822222 0.48022222
v 0.46896193 -0.22555556 -0.71133333
v 0.54657289 -0.22555556 0.52111111
v -2.9847463e-3 -0.36822222 -0.64733333
v -2.9847463e-3 -0.36822222 0.48022222
v -2.9847463e-3 -0.22555556 -0.71133333
v -2.9847463e-3 -0.22555556 0.52111111
v 0.55452328 -0.12777778 -0.65800000
v 0.59754534 -0.12777778 0.58333333
v -2.9847463e-3 -0.12777778 0.58333333
v -2.9847463e-3 -0.12777778 -0.65800000
v 6.7859698e-2 -0.10644444 -0.79844444
v 0.59754534 -0.10644444 0.59222222
v -2.9847463e-3 -0.10644444 0.59222222
v -2.9847463e-3 -0.10644444 -0.79844444
v 6.7859698e-2 -5.1111111e-3 -0.76288889
v 0.59754534 -5.1111111e-3 0.65622222
v -2.9847463e-3 -5.1111111e-3 0.65622222
v -2.9847463e-3 -5.1111111e-3 -0.76288889
v 0.54657289 0.19222222 -0.60644444
v 0.54657289 0.19222222 0.72200000
v -2.9847463e-3 0.19222222 0.72200000
v -2.9847463e-3 0.19222222 -0.60644444
v 0.58925351 0.30777778 -0.66511111
v 0.58925351 0.30777778 0.73977778
v -2.9847463e-3 0.30777778 0.73977778
v -2.9847463e-3 0.30777778 -0.66511111
v 0.54657289 0.67222222 -0.42981960
v 0.54657289 0.67222222 0.60937516
v -2.9847463e-3 0.67222222 0.68111111
v -2.9847463e-3 0.67222222 -0.50155556
v 0.44233370 0.78422222 -0.42282222
v 0.44233370 0.80555556 0.50637778
v -2.9847463e-3 0.80555556 0.60288889
v -2.9847463e-3 0.78422222 -0.51933333
v 0.31265030 0.91933333 -0.30777778
v 0.31265030 0.91755556 0.43711901
v -2.9847463e-3 0.91755556 0.51755556
v -2.9847463e-3 0.91933333 -0.30777778
v 0.25027094 0.99222222 7.8000000e-2
v 0.25027094 0.98866667 0.29533333
v -2.9847463e-3 0.98866667 0.29533333
v -2.9847463e-3 0.99222222 7.8000000e-2
v 0.36435951 -0.50511111 0.51044444
v 0.36435951 -0.50511111 -0.69355556
v -2.9847463e-3 -0.50511111 -0.69355556
v -2.9847463e-3 -0.50511111 0.51044444
v 0.16326815 -0.64200000 0.59400000
v 0.16326815 -0.64200000 -0.61000000
v -2.9847463e-3 -0.64200000 -0.61000000
v -2.9847463e-3 -0.64200000 0.59400000
v 0.16326815 -0.67577778 0.61888889
v 0.16326815 -0.67577778 -0.47133333
v -2.9847463e-3 -0.67577778 -0.47133333
v -2.9847463e-3 -0.67577778 0.61888889
v 0.57606409 -0.10644444 -0.63468089
v 0.57606409 -5.1111111e-3 -0.65699271
v 5.9211787e-2 0.19222222 -0.60644444
v 6.5085892e-2 9.3555556e-2 -0.68466667
vt 0.12243909 0.17424258
vt 0.12243909 0.22906819
vt 0.12243909 0.28842263
vt 0.12243909 0.33058063
vt 0.12243909 0.38426111
vt 0.12243909 0.43518066
vt 0.12243909 0.53459260
vt 0.12243909 0.57483159
vt 0.12243909 0.70506750
vt 0.12243909 0.74190938
vt 0.12243909 0.82287557
vt 0.14759613 0.43484904
vt 0.14859631 0.39258595
vt 0.14976070 0.48390280
vt 0.15269796 0.53107069
vt 0.25041675 0.80969740
vt 0.28508934 0.74680580
vt 0.31978968 0.71069325
vt 0.32786687 0.21853633
vt 0.32830948 0.56828962
vt 0.33629255 0.54019835
vt 0.34008402 0.28292142
vt 0.35349896 0.45868504
vt 0.35979408 0.41737950
vt 0.36076941 0.35517599
vt 0.36669718 0.40373601
vt 0.56943915 0.32438010
vt 0.57118242 0.48867798
vt 0.57544638 0.54767028
vt 0.57801752 0.62866255
vt 0.57942346 0.51637060
vt 0.58054651 0.59552524
vt 0.58338779 0.52418533
vt 0.58652020 0.41038276
vt 0.59171748 0.44919455
vt 0.60721449 0.31695630
vt 0.61477077 0.35603035
vt 0.62853458 0.70673751
vt 0.63286759 0.74004841
vt 0.64858408 0.35298302
vt 0.66081562 0.77981033
vt 0.66176844 0.85373055
vt 0.74608490 0.79338935
vt 0.75420438 0.85179404
vt 0.79195793 0.78786074
vt 0.81225497 0.84218011
vt 0.81764346 0.76566129
vt 0.82341231 0.73221222
vt 0.83122332 0.10844544
vt 0.83273413 9.8625172e-2
vt 0.83620899 0.13941706
vt 0.83623045 0.70027322
vt 0.83832413 8.1855172e-2
vt 0.84149683 2.4859833e-2
vt 0.84285656 0.15074815
vt 0.84361197 2.7730374e-2
vt 0.84376305 7.3243550e-2
vt 0.84451845 7.1430577e-2
vt 0.84518017 0.52899768
vt 0.84795888 0.55318552
vt 0.84873467 0.55756137
vt 0.84980629 6.3121117e-2
vt 0.85010845 0.16026625
vt 0.85071278 3.9363617e-2
vt 0.85194407 0.48904916
vt 0.85328116 5.0996860e-2
vt 0.85579187 0.57850217
vt 0.86062284 0.63725819
vt 0.86325125 0.61699634
vt 0.86578610 0.45292294
vt 0.86899359 0.16630950
vt 0.87188728 0.81446216
vt 0.88374699 7.3600651e-2
vt 0.88374699 0.16625113
vt 0.88374699 0.17838003
vt 0.88746325 0.16661166
vt 0.89787567 7.3600651e-2
vt 0.89787567 0.16625113
vt 0.89787567 0.17838003
vt 0.89861954 0.39899654
vt 0.90183728 0.78646884
vt 0.90474755 0.39152463
vt 0.92024785 0.16041734
vt 0.92861076 0.75521547
vt 0.93414731 2.4859833e-2
vt 0.93671569 0.13941706
vt 0.93768184 0.38068173
vt 0.93822650 0.14893517
vt 0.94043793 0.38905232
vt 0.94562947 9.8625172e-2
vt 0.94593163 2.7730374e-2
vt 0.94910433 5.0996860e-2
vt 0.95001082 7.1430577e-2
vt 0.95061514 0.10844544
vt 0.95303244 3.9363617e-2
vt 0.95454325 6.3121117e-2
vt 0.95599004 0.42912047
vt 0.95892460 8.1855172e-2
vt 0.96194623 7.3243550e-2
vt 0.96769201 0.46725488
vt 0.96949539 0.67084330
vt 0.97834255 0.63940180
vt 0.97968430 0.50833477
vt 0.98644693 0.58222159
vt 0.98686784 0.54232614
vt 0.98702069 0.54885673
vn 0.63684694 -0.35600213 -0.68387751
vn 0.59733666 -0.40793702 0.69048990
vn 0.64629569 -0.29073797 -0.70553052
vn 0.57185686 -0.58374843 0.57638311
vn -0.73190805 -3.2710437e-2 -0.68061784
vn -0.71802337 -2.1513629e-2 0.69568643
vn -0.74483923 2.5902307e-2 -0.66674102
vn -0.71076549 -0.28870853 0.64145132
vn 0.76392316 -0.25761775 -0.59165404
vn 0.65681415 -0.46949370 0.59006003
vn -0.70841368 -0.32639837 0.62579083
vn -0.72387458 -0.54235087 -0.42645180
vn 0.15093926 -0.12335975 -0.98081584
vn 0.65516182 -0.44509742 0.61045169
vn -0.70836230 -0.32535377 0.62639267
vn -0.95268489 -0.15661462 -0.26050598
vn 9.0011129e-2 0.48187022 -0.87160718
vn 0.72716543 -0.21626375 0.65150627
vn -0.60280697 -0.34167933 0.72102634
vn -0.60534020 0.38432362 -0.69703558
vn 0.60871040 6.9303117e-2 -0.79035987
vn 0.78097112 -0.21901905 0.58490577
vn -0.80091443 -0.12421024 0.58575412
vn -0.61227775 0.24178792 -0.75276461
vn 0.71736726 -0.23491588 -0.65589537
vn 0.61600837 1.7787461e-2 0.78753875
vn -0.71142012 2.4445862e-3 0.70276271
vn -0.73986400 8.3061379e-3 -0.67270518
vn 0.66059187 0.42968160 -0.61562335
vn 0.63802378 0.55322043 0.53560508
vn -0.67930469 0.31319822 0.66366559
vn -0.67788125 9.7045334e-2 -0.72873810
vn 0.53016291 0.69301788 -0.48852177
vn 0.50550067 0.74135973 0.44142363
vn -0.64225004 0.42701705 0.63653070
vn -0.70380753 0.33123949 -0.62843882
vn 0.42683495 0.87649834 -0.22262656
vn 0.46782135 0.82595980 0.31453711
vn -0.67883646 0.59795162 0.42618649
vn -0.71355229 0.65125932 -0.25827201
vn 0.28860608 0.95566031 -5.8479954e-2
vn 0.30106842 0.94339279 0.13916841
vn -0.45108407 0.88064707 0.14485819
vn -0.44906337 0.89025965 -7.6025361e-2
vn 0.59751025 -0.24415901 0.76378523
vn 0.51890988 -0.55190776 -0.65278662
vn -0.74104367 -7.4506320e-2 -0.66731034
vn -0.71194619 0.26220588 0.65144509
vn 0.68035951 0.12519215 0.72210654
vn 0.52063119 -0.77266913 -0.36321561
vn -0.73440023 -0.54807988 -0.40033080
vn -0.70744133 0.39411578 0.58668519
vn 0.74255567 -0.30207236 0.59779877
vn 0.44977651 -0.88677497 -0.10644834
vn -0.44977651 -0.88677497 -0.10644834
vn -0.74255567 -0.30207236 0.59779877
vn 0.78874568 -0.11271487 -0.60429762
vn 0.77030426 0.22988858 -0.59479626
vn 0.0000000e+0 -2.7236524e-2 -0.99962902
vn 4.4445701e-2 0.56792230 -0.82188128
g Cube3_copy5
usemtl Cube3_auv
s 1
f 1/35/1 4/59/4 2/65/2
f 1/22/1 7/3/7 3/25/3
f 1/22/1 47/1/47 5/2/5
f 2/65/2 45/70/45 1/35/1
f 3/28/3 4/59/4 1/35/1
f 3/28/3 9/31/9 4/59/4
f 4/59/4 6/100/6 2/65/2
f 4/59/4 11/105/11 8/103/8
f 5/2/5 7/3/7 1/22/1
f 5/92/5 47/95/47 6/66/6
f 6/66/6 7/96/7 5/92/5
f 6/100/6 45/70/45 2/65/2
f 7/3/7 9/26/9 3/25/3
f 8/103/8 6/100/6 4/59/4
f 8/62/8 7/96/7 6/66/6
f 8/62/8 11/58/11 7/96/7
f 9/26/9 7/3/7 12/4/12
f 9/31/9 14/61/14 10/60/10
f 10/60/10 4/59/4 9/31/9
f 10/60/10 14/61/14 11/105/11
f 11/105/11 4/59/4 10/60/10
f 11/58/11 16/99/16 12/93/12
f 12/93/12 7/96/7 11/58/11
f 12/4/12 13/13/13 9/26/9
f 13/13/13 12/4/12 16/5/16
f 13/13/13 20/6/20 17/12/17
f 13/13/13 57/24/57 9/26/9
f 13/13/13 58/23/58 57/24/57
f 14/61/14 9/31/9 57/33/57
f 14/61/14 19/104/19 15/106/15
f 15/106/15 11/105/11 14/61/14
f 15/57/15 19/53/19 16/99/16
f 16/99/16 11/58/11 15/57/15
f 16/5/16 20/6/20 13/13/13
f 17/12/17 58/23/58 13/13/13
f 18/67/18 14/61/14 58/29/58
f 18/67/18 22/69/22 19/104/19
f 19/104/19 14/61/14 18/67/18
f 19/53/19 23/50/23 20/98/20
f 20/98/20 16/99/16 19/53/19
f 20/6/20 60/14/60 17/12/17
f 21/32/21 25/30/25 22/69/22
f 21/21/21 60/14/60 59/15/59
f 22/69/22 26/68/26 23/102/23
f 22/69/22 58/29/58 21/32/21
f 23/102/23 19/104/19 22/69/22
f 23/50/23 28/94/28 24/90/24
f 24/90/24 20/98/20 23/50/23
f 24/7/24 60/14/60 20/6/20
f 25/30/25 29/38/29 26/68/26
f 25/20/25 59/15/59 28/8/28
f 26/68/26 22/69/22 25/30/25
f 26/68/26 31/84/31 27/101/27
f 27/101/27 23/102/23 26/68/26
f 27/49/27 31/51/31 28/94/28
f 28/94/28 23/50/23 27/49/27
f 28/8/28 29/18/29 25/20/25
f 28/8/28 59/15/59 24/7/24
f 29/18/29 28/8/28 32/9/32
f 29/38/29 34/48/34 30/52/30
f 29/18/29 36/10/36 33/17/33
f 30/52/30 26/68/26 29/38/29
f 30/52/30 34/48/34 31/84/31
f 31/84/31 26/68/26 30/52/30
f 31/51/31 36/88/36 32/86/32
f 32/86/32 28/94/28 31/51/31
f 32/9/32 36/10/36 29/18/29
f 33/39/33 37/41/37 34/48/34
f 34/48/34 29/38/29 33/39/33
f 34/48/34 39/72/39 35/81/35
f 35/81/35 31/84/31 34/48/34
f 35/55/35 39/63/39 36/88/36
f 36/88/36 31/51/31 35/55/35
f 36/10/36 37/16/37 33/17/33
f 37/16/37 36/10/36 40/11/40
f 37/41/37 42/45/42 38/47/38
f 37/41/37 44/44/44 41/43/41
f 38/47/38 34/48/34 37/41/37
f 38/47/38 42/45/42 39/72/39
f 39/72/39 34/48/34 38/47/38
f 39/63/39 44/76/44 40/83/40
f 40/83/40 36/88/36 39/63/39
f 40/42/40 44/44/44 37/41/37
f 41/43/41 44/44/44 42/45/42
f 42/45/42 37/41/37 41/43/41
f 42/45/42 44/44/44 43/46/43
f 43/46/43 39/72/39 42/45/42
f 44/76/44 39/63/39 43/71/43
f 45/70/45 6/100/6 48/97/48
f 45/70/45 50/37/50 46/34/46
f 45/70/45 52/89/52 49/80/49
f 46/34/46 1/35/1 45/70/45
f 46/34/46 50/37/50 47/27/47
f 47/1/47 1/22/1 46/19/46
f 47/95/47 52/56/52 48/64/48
f 48/64/48 6/66/6 47/95/47
f 48/97/48 52/89/52 45/70/45
f 49/80/49 53/82/53 50/37/50
f 50/37/50 45/70/45 49/80/49
f 50/79/50 55/74/55 51/75/51
f 51/36/51 47/27/47 50/37/50
f 51/91/51 55/85/55 52/56/52
f 52/56/52 47/95/47 51/91/51
f 52/89/52 53/82/53 49/80/49
f 53/82/53 52/89/52 56/87/56
f 53/77/53 55/74/55 54/78/54
f 54/40/54 50/37/50 53/82/53
f 55/74/55 50/79/50 54/78/54
f 55/74/55 53/77/53 56/73/56
f 56/54/56 52/56/52 55/85/55
f 57/33/57 58/29/58 14/61/14
f 58/29/58 22/69/22 18/67/18
f 58/23/58 60/14/60 21/21/21
f 59/15/59 25/20/25 21/21/21
f 59/15/59 60/14/60 24/7/24
f 60/14/60 58/23/58 17/12/17
o Cube3
#60 vertices, 116 faces
v -0.44230014 -0.36822222 -0.64733333
v -0.44230014 -0.36822222 0.48022222
v -0.46892836 -0.22555556 -0.71133333
v -0.54653933 -0.22555556 0.52111111
v 3.0183111e-3 -0.36822222 -0.64733333
v 3.0183111e-3 -0.36822222 0.48022222
v 3.0183111e-3 -0.22555556 -0.71133333
v 3.0183111e-3 -0.22555556 0.52111111
v -0.55448972 -0.12777778 -0.65800000
v -0.59751177 -0.12777778 0.58333333
v 3.0183111e-3 -0.12777778 0.58333333
v 3.0183111e-3 -0.12777778 -0.65800000
v -6.7826133e-2 -0.10644444 -0.79844444
v -0.59751177 -0.10644444 0.59222222
v 3.0183111e-3 -0.10644444 0.59222222
v 3.0183111e-3 -0.10644444 -0.79844444
v -6.7826133e-2 -5.1111111e-3 -0.76288889
v -0.59751177 -5.1111111e-3 0.65622222
v 3.0183111e-3 -5.1111111e-3 0.65622222
v 3.0183111e-3 -5.1111111e-3 -0.76288889
v -0.54653933 0.19222222 -0.60644444
v -0.54653933 0.19222222 0.72200000
v 3.0183111e-3 0.19222222 0.72200000
v 3.0183111e-3 0.19222222 -0.60644444
v -0.58921994 0.30777778 -0.66511111
v -0.58921994 0.30777778 0.73977778
v 3.0183111e-3 0.30777778 0.73977778
v 3.0183111e-3 0.30777778 -0.66511111
v -0.54653933 0.67222222 -0.42981960
v -0.54653933 0.67222222 0.60937516
v 3.0183111e-3 0.67222222 0.68111111
v 3.0183111e-3 0.67222222 -0.50155556
v -0.44230014 0.78422222 -0.42282222
v -0.44230014 0.80555556 0.50637778
v 3.0183111e-3 0.80555556 0.60288889
v 3.0183111e-3 0.78422222 -0.51933333
v -0.31261674 0.91933333 -0.30777778
v -0.31261674 0.91755556 0.43711901
v 3.0183111e-3 0.91755556 0.51755556
v 3.0183111e-3 0.91933333 -0.30777778
v -0.25023738 0.99222222 7.8000000e-2
v -0.25023738 0.98866667 0.29533333
v 3.0183111e-3 0.98866667 0.29533333
v 3.0183111e-3 0.99222222 7.8000000e-2
v -0.36432594 -0.50511111 0.51044444
v -0.36432594 -0.50511111 -0.69355556
v 3.0183111e-3 -0.50511111 -0.69355556
v 3.0183111e-3 -0.50511111 0.51044444
v -0.16323459 -0.64200000 0.59400000
v -0.16323459 -0.64200000 -0.61000000
v 3.0183111e-3 -0.64200000 -0.61000000
v 3.0183111e-3 -0.64200000 0.59400000
v -0.16323459 -0.67577778 0.61888889
v -0.16323459 -0.67577778 -0.47133333
v 3.0183111e-3 -0.67577778 -0.47133333
v 3.0183111e-3 -0.67577778 0.61888889
v -0.57603053 -0.10644444 -0.63468089
v -0.57603053 -5.1111111e-3 -0.65699271
v -5.9178222e-2 0.19222222 -0.60644444
v -6.5052327e-2 9.3555556e-2 -0.68466667
vt 0.12243909 0.17424258
vt 0.12243909 0.22906819
vt 0.12243909 0.28842263
vt 0.12243909 0.33058063
vt 0.12243909 0.38426111
vt 0.12243909 0.43518066
vt 0.12243909 0.53459260
vt 0.12243909 0.57483159
vt 0.12243909 0.70506750
vt 0.12243909 0.74190938
vt 0.12243909 0.82287557
vt 0.14759613 0.43484904
vt 0.14859631 0.39258595
vt 0.14976070 0.48390280
vt 0.15269796 0.53107069
vt 0.25041675 0.80969740
vt 0.28508934 0.74680580
vt 0.31978968 0.71069325
vt 0.32786687 0.21853633
vt 0.32830948 0.56828962
vt 0.33629255 0.54019835
vt 0.34008402 0.28292142
vt 0.35349896 0.45868504
vt 0.35979408 0.41737950
vt 0.36076941 0.35517599
vt 0.36669718 0.40373601
vt 0.56943915 0.32438010
vt 0.57118242 0.48867798
vt 0.57544638 0.54767028
vt 0.57801752 0.62866255
vt 0.57942346 0.51637060
vt 0.58054651 0.59552524
vt 0.58338779 0.52418533
vt 0.58652020 0.41038276
vt 0.59171748 0.44919455
vt 0.60721449 0.31695630
vt 0.61477077 0.35603035
vt 0.62853458 0.70673751
vt 0.63286759 0.74004841
vt 0.64858408 0.35298302
vt 0.66081562 0.77981033
vt 0.66176844 0.85373055
vt 0.74608490 0.79338935
vt 0.75420438 0.85179404
vt 0.79195793 0.78786074
vt 0.81225497 0.84218011
vt 0.81764346 0.76566129
vt 0.82341231 0.73221222
vt 0.83122332 0.10844544
vt 0.83273413 9.8625172e-2
vt 0.83620899 0.13941706
vt 0.83623045 0.70027322
vt 0.83832413 8.1855172e-2
vt 0.84149683 2.4859833e-2
vt 0.84285656 0.15074815
vt 0.84361197 2.7730374e-2
vt 0.84376305 7.3243550e-2
vt 0.84451845 7.1430577e-2
vt 0.84518017 0.52899768
vt 0.84795888 0.55318552
vt 0.84873467 0.55756137
vt 0.84980629 6.3121117e-2
vt 0.85010845 0.16026625
vt 0.85071278 3.9363617e-2
vt 0.85194407 0.48904916
vt 0.85328116 5.0996860e-2
vt 0.85579187 0.57850217
vt 0.86062284 0.63725819
vt 0.86325125 0.61699634
vt 0.86578610 0.45292294
vt 0.86899359 0.16630950
vt 0.87188728 0.81446216
vt 0.88374699 7.3600651e-2
vt 0.88374699 0.16625113
vt 0.88374699 0.17838003
vt 0.88746325 0.16661166
vt 0.89787567 7.3600651e-2
vt 0.89787567 0.16625113
vt 0.89787567 0.17838003
vt 0.89861954 0.39899654
vt 0.90183728 0.78646884
vt 0.90474755 0.39152463
vt 0.92024785 0.16041734
vt 0.92861076 0.75521547
vt 0.93414731 2.4859833e-2
vt 0.93671569 0.13941706
vt 0.93768184 0.38068173
vt 0.93822650 0.14893517
vt 0.94043793 0.38905232
vt 0.94562947 9.8625172e-2
vt 0.94593163 2.7730374e-2
vt 0.94910433 5.0996860e-2
vt 0.95001082 7.1430577e-2
vt 0.95061514 0.10844544
vt 0.95303244 3.9363617e-2
vt 0.95454325 6.3121117e-2
vt 0.95599004 0.42912047
vt 0.95892460 8.1855172e-2
vt 0.96194623 7.3243550e-2
vt 0.96769201 0.46725488
vt 0.96949539 0.67084330
vt 0.97834255 0.63940180
vt 0.97968430 0.50833477
vt 0.98644693 0.58222159
vt 0.98686784 0.54232614
vt 0.98702069 0.54885673
vn -0.63684694 -0.35600213 -0.68387751
vn -0.59733666 -0.40793702 0.69048990
vn -0.64629569 -0.29073797 -0.70553052
vn -0.57185686 -0.58374843 0.57638311
vn 0.73190805 -3.2710437e-2 -0.68061784
vn 0.71802337 -2.1513629e-2 0.69568643
vn 0.74483923 2.5902307e-2 -0.66674102
vn 0.71076549 -0.28870853 0.64145132
vn -0.70035192 -0.42765723 -0.57150370
vn -0.65681415 -0.46949370 0.59006003
vn 0.70841368 -0.32639837 0.62579083
vn 0.86736805 -0.22109521 -0.44585825
vn -0.19528953 1.3752902e-2 -0.98064920
vn -0.65516182 -0.44509742 0.61045169
vn 0.70836230 -0.32535377 0.62639267
vn 0.84299336 -0.27716423 -0.46102298
vn -7.1958518e-2 0.45259792 -0.88880656
vn -0.72716543 -0.21626375 0.65150627
vn 0.70968723 -0.30169541 0.63665055
vn 0.55944488 0.44016514 -0.70233615
vn -0.60871040 6.9303117e-2 -0.79035987
vn -0.68740614 -0.22005654 0.69213287
vn 0.70837090 -0.16585972 0.68607669
vn 0.84010691 0.16587872 -0.51643454
vn -0.74563733 -7.6639215e-2 -0.66193006
vn -0.70725801 -1.6596522e-2 0.70676069
vn 0.70437807 3.4636377e-2 0.70897945
vn 0.58944490 -0.14616627 -0.79447475
vn -0.63858156 0.49670969 -0.58778659
vn -0.63698149 0.52134666 0.56784878
vn 0.66980140 0.25130909 0.69872014
vn 0.68202883 0.18872323 -0.70655518
vn -0.53115407 0.67150780 -0.51667458
vn -0.50243699 0.76288805 0.40688928
vn 0.65080445 0.46733625 0.59837312
vn 0.71260924 0.29095005 -0.63838557
vn -0.43058937 0.86010823 -0.27350800
vn -0.46813746 0.82356894 0.32028350
vn 0.67470940 0.60411534 0.42404231
vn 0.71183640 0.63239120 -0.30556556
vn -0.27345267 0.96005802 -5.9264143e-2
vn -0.27310783 0.94586273 0.17537333
vn 0.44011448 0.87978136 0.17967751
vn 0.44906337 0.89025965 -7.6025361e-2
vn -0.59751025 -0.24415901 0.76378523
vn -0.51890988 -0.55190776 -0.65278662
vn 0.74104367 -7.4506320e-2 -0.66731034
vn 0.71194619 0.26220588 0.65144509
vn -0.68035951 0.12519215 0.72210654
vn -0.52063119 -0.77266913 -0.36321561
vn 0.73440023 -0.54807988 -0.40033080
vn 0.70744133 0.39411578 0.58668519
vn -0.74255567 -0.30207236 0.59779877
vn -0.44977651 -0.88677497 -0.10644834
vn 0.44977651 -0.88677497 -0.10644834
vn 0.74255567 -0.30207236 0.59779877
vn -0.78874568 -0.11271487 -0.60429762
vn -0.77030426 0.22988858 -0.59479626
vn 0.0000000e+0 -2.7236524e-2 -0.99962902
vn -4.4445701e-2 0.56792230 -0.82188128
g Cube3
usemtl Cube3_auv
s 1
f 61/141/61 64/165/64 63/134/63
f 61/128/61 67/109/67 65/108/65
f 61/141/61 105/176/105 62/171/62
f 62/171/62 64/165/64 61/141/61
f 62/171/62 66/206/66 64/165/64
f 62/171/62 105/176/105 66/206/66
f 63/131/63 67/109/67 61/128/61
f 63/131/63 69/132/69 67/109/67
f 64/165/64 66/206/66 68/209/68
f 64/165/64 69/137/69 63/134/63
f 65/198/65 67/202/67 66/172/66
f 65/108/65 107/107/107 61/128/61
f 66/172/66 67/202/67 68/168/68
f 66/172/66 107/201/107 65/198/65
f 67/202/67 71/164/71 68/168/68
f 68/209/68 71/211/71 64/165/64
f 69/137/69 64/165/64 70/166/70
f 69/132/69 76/111/76 72/110/72
f 69/132/69 117/130/117 73/119/73
f 70/166/70 64/165/64 71/211/71
f 70/166/70 74/167/74 69/137/69
f 71/164/71 67/202/67 72/199/72
f 71/211/71 74/167/74 70/166/70
f 72/110/72 67/109/67 69/132/69
f 72/199/72 76/205/76 71/164/71
f 73/119/73 76/111/76 69/132/69
f 73/119/73 77/118/77 76/111/76
f 73/119/73 118/129/118 77/118/77
f 74/167/74 71/211/71 75/212/75
f 74/167/74 118/135/118 117/139/117
f 75/163/75 71/164/71 76/205/76
f 75/212/75 79/210/79 74/167/74
f 76/205/76 79/159/79 75/163/75
f 77/118/77 118/129/118 120/120/120
f 77/118/77 120/120/120 80/112/80
f 78/173/78 74/167/74 79/210/79
f 78/173/78 82/175/82 118/135/118
f 79/159/79 76/205/76 80/204/80
f 79/210/79 82/175/82 78/173/78
f 80/112/80 76/111/76 77/118/77
f 80/204/80 84/196/84 79/159/79
f 80/112/80 120/120/120 84/113/84
f 81/127/81 85/126/85 119/121/119
f 81/138/81 118/135/118 82/175/82
f 81/127/81 120/120/120 118/129/118
f 82/175/82 79/210/79 83/208/83
f 82/175/82 85/136/85 81/138/81
f 83/156/83 79/159/79 84/196/84
f 83/208/83 87/207/87 82/175/82
f 84/196/84 87/155/87 83/156/83
f 84/113/84 119/121/119 88/114/88
f 84/113/84 120/120/120 119/121/119
f 85/136/85 82/175/82 86/174/86
f 85/126/85 92/115/92 88/114/88
f 86/174/86 82/175/82 87/207/87
f 86/174/86 90/158/90 85/136/85
f 87/155/87 84/196/84 88/200/88
f 87/207/87 90/158/90 86/174/86
f 88/200/88 92/192/92 87/155/87
f 88/114/88 119/121/119 85/126/85
f 89/144/89 85/136/85 90/158/90
f 89/124/89 92/115/92 85/126/85
f 89/124/89 93/123/93 92/115/92
f 90/158/90 87/207/87 91/190/91
f 90/158/90 93/145/93 89/144/89
f 91/157/91 87/155/87 92/192/92
f 91/190/91 95/187/95 90/158/90
f 92/192/92 95/161/95 91/157/91
f 93/145/93 90/158/90 94/154/94
f 93/123/93 100/117/100 96/116/96
f 94/154/94 90/158/90 95/187/95
f 94/154/94 98/153/98 93/145/93
f 95/161/95 92/192/92 96/194/96
f 95/187/95 98/153/98 94/154/94
f 96/116/96 92/115/92 93/123/93
f 96/194/96 100/189/100 95/161/95
f 97/147/97 93/145/93 98/153/98
f 97/122/97 100/117/100 93/123/93
f 97/147/97 101/149/101 100/148/100
f 98/153/98 95/187/95 99/178/99
f 98/153/98 101/149/101 97/147/97
f 99/169/99 95/161/95 100/189/100
f 99/178/99 103/152/103 98/153/98
f 100/189/100 103/177/103 99/169/99
f 101/149/101 98/153/98 102/151/102
f 102/151/102 98/153/98 103/152/103
f 102/151/102 103/152/103 101/149/101
f 103/177/103 100/189/100 104/182/104
f 104/150/104 100/148/100 101/149/101
f 104/150/104 101/149/101 103/152/103
f 105/176/105 61/141/61 106/140/106
f 105/176/105 112/195/112 108/203/108
f 106/125/106 61/128/61 107/107/107
f 106/140/106 110/143/110 105/176/105
f 107/201/107 66/172/66 108/170/108
f 107/133/107 110/143/110 106/140/106
f 108/203/108 66/206/66 105/176/105
f 108/170/108 112/162/112 107/201/107
f 109/186/109 105/176/105 110/143/110
f 109/186/109 112/195/112 105/176/105
f 109/186/109 113/188/113 112/195/112
f 110/143/110 107/133/107 111/142/111
f 110/143/110 113/188/113 109/186/109
f 111/197/111 107/201/107 112/162/112
f 111/181/111 115/180/115 110/185/110
f 112/162/112 115/191/115 111/197/111
f 113/188/113 110/143/110 114/146/114
f 114/184/114 110/185/110 115/180/115
f 114/184/114 115/180/115 113/183/113
f 115/191/115 112/162/112 116/160/116
f 116/193/116 112/195/112 113/188/113
f 116/179/116 113/183/113 115/180/115
f 117/139/117 69/137/69 74/167/74
f 117/130/117 118/129/118 73/119/73
f 118/135/118 74/167/74 78/173/78
f 119/121/119 120/120/120 81/127/81
