# Exported from Wings 3D 1.5.4
mtllib tree.mtl
o Cylinder2
#139 vertices, 254 faces
v 5.63792625 47.60016971 3.88641959
v 3.76976420 47.60016971 8.39656175
v -0.74037796 47.60016971 10.26472380
v -5.25052012 47.60016971 8.39656175
v -7.11868218 47.60016971 3.88641959
v -5.25052012 47.60016971 -0.62372257
v -0.74037796 47.60016971 -2.49188462
v 3.76976420 47.60016971 -0.62372257
v 8.36831170 2.54558546 2.70474896
v 5.72099647 2.54558546 9.09593330
v 9.30938618 2.54558546 17.31080037
v -7.06137221 2.54558546 9.09593330
v -17.69234667 2.54558546 7.74706006
v -7.06137221 2.54558546 -3.68643537
v -2.87619897 2.54558546 -12.95178392
v 10.34311497 2.54558546 -7.67826499
v 6.07620308 13.63424511 2.70474896
v 4.14385619 13.63424511 7.36984702
v -0.52124186 13.63424511 9.30219391
v -5.18633992 13.63424511 7.36984702
v -7.11868680 13.63424511 2.70474896
v -5.18633992 13.63424511 -1.96034909
v -0.52124186 13.63424511 -3.89269598
v 4.14385619 13.63424511 -1.96034909
v 35.68695460 79.31482314 -5.90342848
v 29.90898166 79.31482314 6.09465596
v 16.92599432 79.31482314 9.05793810
v 6.51444685 79.31482314 0.75500605
v 6.51444685 79.31482314 -12.56186300
v 16.92599432 79.31482314 -20.86479505
v 29.90898166 79.31482314 -17.90151291
v 42.04352811 63.96869715 -5.90342848
v 33.87224042 63.96869715 11.06442525
v 15.51152364 63.96869715 15.25513904
v 0.78737200 63.96869715 3.51301993
v 0.78737200 63.96869715 -15.31987689
v 15.51152364 63.96869715 -27.06199600
v 33.87224042 63.96869715 -22.87128221
v 35.68695460 48.62257116 -5.90342848
v 29.90898166 48.62257116 6.09465596
v 16.92599432 48.62257116 9.05793810
v 6.51444685 48.62257116 0.75500605
v 6.51444685 48.62257116 -12.56186300
v 16.92599432 48.62257116 -20.86479505
v 29.90898166 48.62257116 -17.90151291
v 20.34082861 85.67139666 -5.90342848
v 20.34082861 42.26599765 -5.90342848
v 19.87554915 83.44347633 -11.90947024
v 12.54309618 83.44347633 3.31652524
v -3.93277608 83.44347633 7.07703557
v -17.14539978 83.44347633 -3.45968023
v -17.14539978 83.44347633 -20.35926024
v -3.93277608 83.44347633 -30.89597604
v 12.54309618 83.44347633 -27.13546571
v 27.94226680 63.96869715 -11.90947024
v 17.57261237 63.96869715 9.62333906
v -5.72778963 63.96869715 14.94150377
v -24.41326125 63.96869715 4.0337392e-2
v -24.41326125 63.96869715 -23.85927786
v -5.72778963 63.96869715 -38.76044424
v 17.57261237 63.96869715 -33.44227954
v 19.87554915 44.49391798 -11.90947024
v 12.54309618 44.49391798 3.31652524
v -3.93277608 44.49391798 7.07703557
v -17.14539978 44.49391798 -3.45968023
v -17.14539978 44.49391798 -20.35926024
v -3.93277608 44.49391798 -30.89597604
v 12.54309618 44.49391798 -27.13546571
v 0.40076997 91.51019399 -11.90947024
v 0.40076997 36.42720032 -11.90947024
v -12.62970443 73.76118144 3.88641959
v -15.47998032 73.76118144 9.80507846
v -21.88449210 73.76118144 11.26686648
v -27.02051178 73.76118144 7.17102746
v -27.02051178 73.76118144 0.60181172
v -21.88449210 73.76118144 -3.49402730
v -15.47998032 73.76118144 -2.03223928
v -9.49400469 66.19093260 3.88641959
v -13.52490351 66.19093260 12.25666723
v -22.58225094 66.19093260 14.32394768
v -29.84567963 66.19093260 8.53155659
v -29.84567963 66.19093260 -0.75871741
v -22.58225094 66.19093260 -6.55110850
v -13.52490351 66.19093260 -4.48382805
v -12.62970443 58.62068377 3.88641959
v -15.47998032 58.62068377 9.80507846
v -21.88449210 58.62068377 11.26686648
v -27.02051178 58.62068377 7.17102746
v -27.02051178 58.62068377 0.60181172
v -21.88449210 58.62068377 -3.49402730
v -15.47998032 58.62068377 -2.03223928
v -20.19995326 76.89688118 3.88641959
v -20.19995326 55.48498403 3.88641959
v 25.70260378 77.91911204 3.88641959
v 20.45013030 77.91911204 14.79329314
v 8.64792954 77.91911204 17.48706845
v -0.81670061 77.91911204 9.93927776
v -0.81670061 77.91911204 -2.16643858
v 8.64792954 77.91911204 -9.71422927
v 20.45013030 77.91911204 -7.02045396
v 31.48105482 63.96869715 3.88641959
v 24.05293560 63.96869715 19.31106809
v 7.36210322 63.96869715 23.12064166
v -6.02290511 63.96869715 12.44645371
v -6.02290511 63.96869715 -4.67361453
v 7.36210322 63.96869715 -15.34780248
v 24.05293560 63.96869715 -11.53822891
v 25.70260378 50.01828227 3.88641959
v 20.45013030 50.01828227 14.79329314
v 8.64792954 50.01828227 17.48706845
v -0.81670061 50.01828227 9.93927776
v -0.81670061 50.01828227 -2.16643858
v 8.64792954 50.01828227 -9.71422927
v 20.45013030 50.01828227 -7.02045396
v 11.75218889 83.69756308 3.88641959
v 11.75218889 44.23983123 3.88641959
v -2.98648725 63.70458165 3.88641959
v -6.09814215 63.70458165 10.34783757
v -13.08996724 63.70458165 11.94367602
v -18.69697563 63.70458165 7.47223604
v -18.69697563 63.70458165 0.30060314
v -13.08996724 63.70458165 -4.17083684
v -6.09814215 63.70458165 -2.57499839
v 0.43676574 55.44011786 3.88641959
v -3.96377882 55.44011786 13.02424453
v -13.85171270 55.44011786 15.28110091
v -21.78122000 55.44011786 8.95752985
v -21.78122000 55.44011786 -1.18469067
v -13.85171270 55.44011786 -7.50826173
v -3.96377882 55.44011786 -5.25140535
v -2.98648725 47.17565406 3.88641959
v -6.09814215 47.17565406 10.34783757
v -13.08996724 47.17565406 11.94367602
v -18.69697563 47.17565406 7.47223604
v -18.69697563 47.17565406 0.30060314
v -13.08996724 47.17565406 -4.17083684
v -6.09814215 47.17565406 -2.57499839
v -11.25095104 67.12783464 3.88641959
v -11.25095104 43.75240107 3.88641959
vt 0.0000000e+0 0.39429257
vt 0.0000000e+0 0.93414113
vt 1.2909825e-2 0.62206270
vt 1.6403930e-2 0.34694272
vt 2.4662528e-2 0.80447183
vt 3.1022681e-2 0.29885364
vt 4.3698806e-2 0.24994210
vt 5.4433431e-2 0.20025300
vt 5.7723788e-2 0.72465488
vt 6.3148069e-2 0.14982413
vt 7.2658256e-2 9.9963423e-2
vt 8.0065082e-2 5.0025412e-2
vt 8.5473554e-2 0.0000000e+0
vt 0.16509072 1.00000000
vt 0.21735767 0.88428877
vt 0.21735767 0.72465488
vt 0.35012366 0.68204469
vt 0.35012366 0.74150042
vt 0.36769198 0.72445837
vt 0.36769198 0.63963102
vt 0.41010565 0.62206270
vt 0.41010565 0.74202669
vt 0.45251933 0.63963102
vt 0.45251933 0.72445837
vt 0.47008765 0.68204469
vt 0.47985131 0.57043998
vt 0.50487854 0.51270324
vt 0.53312189 0.45225196
vt 0.55262339 0.38467874
vt 0.55581969 0.62206270
vt 0.57332446 0.31630983
vt 0.58309125 0.24551159
vt 0.58366813 0.57334657
vt 0.59383890 0.17604672
vt 0.59668748 4.5814993e-2
vt 0.59734203 0.10892781
vt 0.65310227 0.56773146
vt 0.65344170 0.42016678
vt 0.66891046 0.60288308
vt 0.68578160 3.8857806e-16
vt 0.68774071 0.25558599
vt 0.70421559 0.70116207
vt 0.71430070 0.50883554
vt 0.73166087 8.1484902e-2
vt 0.73400736 0.20023196
vt 0.73660044 0.37980329
vt 0.74684016 0.60696951
vt 0.75666928 0.66808655
vt 0.76300744 0.54721564
vt 0.78962024 0.60921278
vt 0.79216185 0.65756159
vt 0.79720458 0.56139495
vt 0.81780650 0.65504648
vt 0.81871139 0.61073825
vt 0.82244554 0.56657838
vt 0.82437881 0.74445041
vt 0.83833231 0.47835213
vt 0.84026557 0.65622417
vt 0.84399972 0.61206430
vt 0.84490461 0.56775607
vt 0.86550653 0.66140759
vt 0.87054926 0.56524096
vt 0.87309088 0.61358976
vt 0.89970367 0.67558690
vt 0.90604183 0.55471599
vt 0.91587096 0.61583304
vt 0.94841041 0.71396701
vt 0.95849552 0.52164048
vt 0.99380065 0.61991947
vn 0.87466622 0.48472570 5.7483219e-5
vn 0.62541398 0.46669633 0.62534142
vn 1.4207359e-5 0.84737299 0.53099812
vn -0.55508313 0.61955430 0.55500918
vn -0.87944752 0.47599587 6.1056957e-10
vn -0.61494825 0.49380996 -0.61480922
vn -2.0024443e-5 0.85740383 -0.51464422
vn 0.53939548 0.64670433 -0.53928288
vn 0.73850229 -0.63709544 0.22073463
vn 0.78625945 -0.51505962 0.34133512
vn 0.53674707 -0.42146367 0.73093841
vn -0.45871792 -0.46526804 0.75703601
vn -0.94743057 -0.16961405 0.27130496
vn -0.53294151 -0.72349924 -0.43877352
vn -0.40324009 2.4712005e-2 -0.91476049
vn 0.81529421 -3.1235679e-2 -0.57820384
vn 0.98286481 0.16363954 8.4846160e-2
vn 0.70388908 9.7032847e-2 0.70365104
vn 6.1760165e-2 0.16332478 0.98463734
vn -0.70336784 0.10156173 0.70353315
vn -0.97932273 0.19920279 3.5287965e-2
vn -0.70140985 0.12594984 -0.70154178
vn -8.2162550e-2 0.28749921 -0.95425024
vn 0.66430328 0.34012054 -0.66559686
vn 0.78896425 0.61443910 -8.4853832e-17
vn 0.39519686 0.65458603 0.64446611
vn -0.15493050 0.71779806 0.67879488
vn -0.71083223 0.61443910 0.34231876
vn -0.62730079 0.71779806 -0.30209214
vn -0.17556106 0.61443910 -0.76918327
vn 0.43410562 0.71779806 -0.54435123
vn 1.00000000 4.4390312e-16 -1.9729028e-16
vn 0.67450558 -5.8931231e-2 0.73591394
vn -0.28840744 5.8931231e-2 0.95569255
vn -0.90096887 5.7542998e-16 0.43388374
vn -0.90096887 6.4119340e-16 -0.43388374
vn -0.22252093 3.9458056e-16 -0.97492791
vn 0.62348980 4.8500527e-16 -0.78183148
vn 0.78896425 -0.61443910 -1.3788748e-16
vn 0.43410562 -0.71779806 0.54435123
vn -7.6436705e-2 -0.65458603 0.75211339
vn -0.71083223 -0.61443910 0.34231876
vn -0.62730079 -0.71779806 -0.30209214
vn -0.17556106 -0.61443910 -0.76918327
vn 0.43410562 -0.71779806 -0.54435123
vn -8.7280928e-17 1.00000000 3.0548325e-17
vn -7.8552835e-17 -1.00000000 8.7280928e-18
vn 0.78896425 0.61443910 1.0606729e-17
vn 0.39519686 0.65458603 0.64446611
vn -0.15493050 0.71779806 0.67879488
vn -0.71083223 0.61443910 0.34231876
vn -0.62730079 0.71779806 -0.30209214
vn -0.17556106 0.61443910 -0.76918327
vn 0.43410562 0.71779806 -0.54435123
vn 1.00000000 -2.4661285e-16 -1.8084942e-16
vn 0.67450558 -5.8931231e-2 0.73591394
vn -0.28840744 5.8931231e-2 0.95569255
vn -0.90096887 -2.1373113e-16 0.43388374
vn -0.90096887 -2.3839242e-16 -0.43388374
vn -0.22252093 -2.3017199e-16 -0.97492791
vn 0.62348980 -2.5483328e-16 -0.78183148
vn 0.78896425 -0.61443910 -1.5910093e-16
vn 0.43410562 -0.71779806 0.54435123
vn -7.6436705e-2 -0.65458603 0.75211339
vn -0.71083223 -0.61443910 0.34231876
vn -0.62730079 -0.71779806 -0.30209214
vn -0.17556106 -0.61443910 -0.76918327
vn 0.43410562 -0.71779806 -0.54435123
vn 2.6184278e-17 1.00000000 -5.2368557e-17
vn 8.7280928e-18 -1.00000000 -2.0947423e-16
vn 0.78896425 0.61443910 6.3640374e-17
vn 0.39519686 0.65458603 0.64446611
vn -0.15493050 0.71779806 0.67879488
vn -0.71083223 0.61443910 0.34231876
vn -0.62730079 0.71779806 -0.30209214
vn -0.17556106 0.61443910 -0.76918327
vn 0.43410562 0.71779806 -0.54435123
vn 1.00000000 2.9429133e-15 4.9322569e-17
vn 0.67450558 -5.8931231e-2 0.73591394
vn -0.28840744 5.8931231e-2 0.95569255
vn -0.90096887 2.9100316e-15 0.43388374
vn -0.90096887 2.7209617e-15 -0.43388374
vn -0.22252093 2.4003650e-15 -0.97492791
vn 0.62348980 2.6305370e-15 -0.78183148
vn 0.78896425 -0.61443910 5.3033645e-17
vn 0.43410562 -0.71779806 0.54435123
vn -7.6436705e-2 -0.65458603 0.75211339
vn -0.71083223 -0.61443910 0.34231876
vn -0.62730079 -0.71779806 -0.30209214
vn -0.17556106 -0.61443910 -0.76918327
vn 0.43410562 -0.71779806 -0.54435123
vn 2.6184278e-17 1.00000000 1.0037307e-16
vn 1.7456186e-17 -1.00000000 -3.4912371e-16
vn 0.78896425 0.61443910 -2.0152785e-16
vn 0.39519686 0.65458603 0.64446611
vn -0.15493050 0.71779806 0.67879488
vn -0.71083223 0.61443910 0.34231876
vn -0.62730079 0.71779806 -0.30209214
vn -0.17556106 0.61443910 -0.76918327
vn 0.43410562 0.71779806 -0.54435123
vn 1.00000000 3.6169884e-16 -6.5763426e-17
vn 0.67450558 -5.8931231e-2 0.73591394
vn -0.28840744 5.8931231e-2 0.95569255
vn -0.90096887 4.2746227e-16 0.43388374
vn -0.90096887 4.5212355e-16 -0.43388374
vn -0.22252093 2.7949456e-16 -0.97492791
vn 0.62348980 2.9593542e-16 -0.78183148
vn 0.78896425 -0.61443910 -1.3788748e-16
vn 0.43410562 -0.71779806 0.54435123
vn -7.6436705e-2 -0.65458603 0.75211339
vn -0.71083223 -0.61443910 0.34231876
vn -0.62730079 -0.71779806 -0.30209214
vn -0.17556106 -0.61443910 -0.76918327
vn 0.43410562 -0.71779806 -0.54435123
vn 8.7280928e-18 1.00000000 1.2219330e-16
vn 4.3640464e-17 -1.00000000 1.1346521e-16
vn 0.78896425 0.61443910 -8.4853832e-17
vn 0.39519686 0.65458603 0.64446611
vn -0.15493050 0.71779806 0.67879488
vn -0.71083223 0.61443910 0.34231876
vn -0.62730079 0.71779806 -0.30209214
vn -0.17556106 0.61443910 -0.76918327
vn 0.43410562 0.71779806 -0.54435123
vn 1.00000000 -9.8645139e-16 -9.8645139e-17
vn 0.67450558 -5.8931231e-2 0.73591394
vn -0.28840744 5.8931231e-2 0.95569255
vn -0.90096887 -1.0850965e-15 0.43388374
vn -0.90096887 -9.1246753e-16 -0.43388374
vn -0.22252093 -1.1344191e-15 -0.97492791
vn 0.62348980 -1.1097578e-15 -0.78183148
vn 0.78896425 -0.61443910 -1.1667402e-16
vn 0.43410562 -0.71779806 0.54435123
vn -7.6436705e-2 -0.65458603 0.75211339
vn -0.71083223 -0.61443910 0.34231876
vn -0.62730079 -0.71779806 -0.30209214
vn -0.17556106 -0.61443910 -0.76918327
vn 0.43410562 -0.71779806 -0.54435123
vn 1.3964948e-16 1.00000000 4.8004510e-17
vn 1.9201804e-16 -1.00000000 2.5747874e-16
g Cylinder2_Cylinder2_auv
usemtl Cylinder2_auv
s 1
f 1/25/1 8/24/8 2/23/2
f 1/13/1 17/35/17 8/12/8
f 2/23/2 8/24/8 3/21/3
f 2/4/2 17/26/17 1/1/1
f 2/4/2 19/28/19 18/27/18
f 3/21/3 7/22/7 4/20/4
f 3/6/3 19/28/19 2/4/2
f 4/20/4 6/19/6 5/17/5
f 4/7/4 19/28/19 3/6/3
f 4/7/4 21/31/21 20/29/20
f 5/8/5 21/31/21 4/7/4
f 6/19/6 4/20/4 7/22/7
f 6/10/6 21/31/21 5/8/5
f 6/10/6 23/34/23 22/32/22
f 7/22/7 3/21/3 8/24/8
f 7/11/7 23/34/23 6/10/6
f 8/12/8 17/35/17 24/36/24
f 8/12/8 23/34/23 7/11/7
f 9/5/9 14/15/14 16/2/16
f 9/30/9 17/26/17 10/33/10
f 10/9/10 14/15/14 9/5/9
f 10/33/10 17/26/17 18/27/18
f 10/33/10 19/28/19 11/37/11
f 11/3/11 12/16/12 10/9/10
f 11/37/11 19/28/19 12/38/12
f 12/16/12 14/15/14 10/9/10
f 12/38/12 19/28/19 20/29/20
f 12/38/12 21/31/21 13/46/13
f 13/18/13 14/15/14 12/16/12
f 13/46/13 21/31/21 14/41/14
f 14/41/14 21/31/21 22/32/22
f 14/41/14 23/34/23 15/45/15
f 15/14/15 16/2/16 14/15/14
f 15/45/15 23/34/23 16/44/16
f 16/44/16 17/35/17 9/40/9
f 16/44/16 23/34/23 24/36/24
f 18/27/18 17/26/17 2/4/2
f 18/27/18 19/28/19 10/33/10
f 20/29/20 19/28/19 4/7/4
f 20/29/20 21/31/21 12/38/12
f 22/32/22 21/31/21 6/10/6
f 22/32/22 23/34/23 14/41/14
f 24/36/24 17/35/17 16/44/16
f 24/36/24 23/34/23 8/12/8
g Cylinder2_sphere3_auv
usemtl sphere3_auv
s 1
f 25/48/25 33/39/33 32/47/32
f 25/48/25 38/50/38 31/51/31
f 25/48/25 46/56/46 26/42/26
f 26/42/26 33/39/33 25/48/25
f 26/67/26 34/66/34 33/69/33
f 26/67/26 46/56/46 27/64/27
f 27/64/27 34/66/34 26/67/26
f 27/64/27 46/56/46 28/61/28
f 28/61/28 34/66/34 27/64/27
f 28/61/28 36/59/36 35/63/35
f 28/61/28 46/56/46 29/58/29
f 29/58/29 36/59/36 28/61/28
f 29/58/29 46/56/46 30/53/30
f 30/53/30 36/59/36 29/58/29
f 30/53/30 38/50/38 37/54/37
f 30/53/30 46/56/46 31/51/31
f 31/51/31 38/50/38 30/53/30
f 31/51/31 46/56/46 25/48/25
f 32/47/32 38/50/38 25/48/25
f 32/47/32 39/49/39 38/50/38
f 33/39/33 39/49/39 32/47/32
f 33/69/33 41/65/41 40/68/40
f 34/66/34 41/65/41 33/69/33
f 34/66/34 42/62/42 41/65/41
f 35/63/35 34/66/34 28/61/28
f 35/63/35 42/62/42 34/66/34
f 36/59/36 42/62/42 35/63/35
f 36/59/36 44/55/44 43/60/43
f 37/54/37 36/59/36 30/53/30
f 37/54/37 44/55/44 36/59/36
f 38/50/38 39/49/39 45/52/45
f 38/50/38 44/55/44 37/54/37
f 39/49/39 47/57/47 45/52/45
f 40/43/40 39/49/39 33/39/33
f 40/43/40 47/57/47 39/49/39
f 41/65/41 47/57/47 40/68/40
f 42/62/42 47/57/47 41/65/41
f 43/60/43 42/62/42 36/59/36
f 43/60/43 47/57/47 42/62/42
f 44/55/44 47/57/47 43/60/43
f 45/52/45 44/55/44 38/50/38
f 45/52/45 47/57/47 44/55/44
f 48/48/48 56/39/56 55/47/55
f 48/48/48 61/50/61 54/51/54
f 48/48/48 69/56/69 49/42/49
f 49/42/49 56/39/56 48/48/48
f 49/67/49 57/66/57 56/69/56
f 49/67/49 69/56/69 50/64/50
f 50/64/50 57/66/57 49/67/49
f 50/64/50 69/56/69 51/61/51
f 51/61/51 57/66/57 50/64/50
f 51/61/51 59/59/59 58/63/58
f 51/61/51 69/56/69 52/58/52
f 52/58/52 59/59/59 51/61/51
f 52/58/52 69/56/69 53/53/53
f 53/53/53 59/59/59 52/58/52
f 53/53/53 61/50/61 60/54/60
f 53/53/53 69/56/69 54/51/54
f 54/51/54 61/50/61 53/53/53
f 54/51/54 69/56/69 48/48/48
f 55/47/55 61/50/61 48/48/48
f 55/47/55 62/49/62 61/50/61
f 56/39/56 62/49/62 55/47/55
f 56/69/56 64/65/64 63/68/63
f 57/66/57 64/65/64 56/69/56
f 57/66/57 65/62/65 64/65/64
f 58/63/58 57/66/57 51/61/51
f 58/63/58 65/62/65 57/66/57
f 59/59/59 65/62/65 58/63/58
f 59/59/59 67/55/67 66/60/66
f 60/54/60 59/59/59 53/53/53
f 60/54/60 67/55/67 59/59/59
f 61/50/61 62/49/62 68/52/68
f 61/50/61 67/55/67 60/54/60
f 62/49/62 70/57/70 68/52/68
f 63/43/63 62/49/62 56/39/56
f 63/43/63 70/57/70 62/49/62
f 64/65/64 70/57/70 63/68/63
f 65/62/65 70/57/70 64/65/64
f 66/60/66 65/62/65 59/59/59
f 66/60/66 70/57/70 65/62/65
f 67/55/67 70/57/70 66/60/66
f 68/52/68 67/55/67 61/50/61
f 68/52/68 70/57/70 67/55/67
f 71/48/71 79/39/79 78/47/78
f 71/48/71 84/50/84 77/51/77
f 71/48/71 92/56/92 72/42/72
f 72/42/72 79/39/79 71/48/71
f 72/67/72 80/66/80 79/69/79
f 72/67/72 92/56/92 73/64/73
f 73/64/73 80/66/80 72/67/72
f 73/64/73 92/56/92 74/61/74
f 74/61/74 80/66/80 73/64/73
f 74/61/74 82/59/82 81/63/81
f 74/61/74 92/56/92 75/58/75
f 75/58/75 82/59/82 74/61/74
f 75/58/75 92/56/92 76/53/76
f 76/53/76 82/59/82 75/58/75
f 76/53/76 84/50/84 83/54/83
f 76/53/76 92/56/92 77/51/77
f 77/51/77 84/50/84 76/53/76
f 77/51/77 92/56/92 71/48/71
f 78/47/78 84/50/84 71/48/71
f 78/47/78 85/49/85 84/50/84
f 79/39/79 85/49/85 78/47/78
f 79/69/79 87/65/87 86/68/86
f 80/66/80 87/65/87 79/69/79
f 80/66/80 88/62/88 87/65/87
f 81/63/81 80/66/80 74/61/74
f 81/63/81 88/62/88 80/66/80
f 82/59/82 88/62/88 81/63/81
f 82/59/82 90/55/90 89/60/89
f 83/54/83 82/59/82 76/53/76
f 83/54/83 90/55/90 82/59/82
f 84/50/84 85/49/85 91/52/91
f 84/50/84 90/55/90 83/54/83
f 85/49/85 93/57/93 91/52/91
f 86/43/86 85/49/85 79/39/79
f 86/43/86 93/57/93 85/49/85
f 87/65/87 93/57/93 86/68/86
f 88/62/88 93/57/93 87/65/87
f 89/60/89 88/62/88 82/59/82
f 89/60/89 93/57/93 88/62/88
f 90/55/90 93/57/93 89/60/89
f 91/52/91 90/55/90 84/50/84
f 91/52/91 93/57/93 90/55/90
f 94/48/94 102/39/102 101/47/101
f 94/48/94 107/50/107 100/51/100
f 94/48/94 115/56/115 95/42/95
f 95/42/95 102/39/102 94/48/94
f 95/67/95 103/66/103 102/69/102
f 95/67/95 115/56/115 96/64/96
f 96/64/96 103/66/103 95/67/95
f 96/64/96 115/56/115 97/61/97
f 97/61/97 103/66/103 96/64/96
f 97/61/97 105/59/105 104/63/104
f 97/61/97 115/56/115 98/58/98
f 98/58/98 105/59/105 97/61/97
f 98/58/98 115/56/115 99/53/99
f 99/53/99 105/59/105 98/58/98
f 99/53/99 107/50/107 106/54/106
f 99/53/99 115/56/115 100/51/100
f 100/51/100 107/50/107 99/53/99
f 100/51/100 115/56/115 94/48/94
f 101/47/101 107/50/107 94/48/94
f 101/47/101 108/49/108 107/50/107
f 102/39/102 108/49/108 101/47/101
f 102/69/102 110/65/110 109/68/109
f 103/66/103 110/65/110 102/69/102
f 103/66/103 111/62/111 110/65/110
f 104/63/104 103/66/103 97/61/97
f 104/63/104 111/62/111 103/66/103
f 105/59/105 111/62/111 104/63/104
f 105/59/105 113/55/113 112/60/112
f 106/54/106 105/59/105 99/53/99
f 106/54/106 113/55/113 105/59/105
f 107/50/107 108/49/108 114/52/114
f 107/50/107 113/55/113 106/54/106
f 108/49/108 116/57/116 114/52/114
f 109/43/109 108/49/108 102/39/102
f 109/43/109 116/57/116 108/49/108
f 110/65/110 116/57/116 109/68/109
f 111/62/111 116/57/116 110/65/110
f 112/60/112 111/62/111 105/59/105
f 112/60/112 116/57/116 111/62/111
f 113/55/113 116/57/116 112/60/112
f 114/52/114 113/55/113 107/50/107
f 114/52/114 116/57/116 113/55/113
f 117/48/117 125/39/125 124/47/124
f 117/48/117 130/50/130 123/51/123
f 117/48/117 138/56/138 118/42/118
f 118/42/118 125/39/125 117/48/117
f 118/67/118 126/66/126 125/69/125
f 118/67/118 138/56/138 119/64/119
f 119/64/119 126/66/126 118/67/118
f 119/64/119 138/56/138 120/61/120
f 120/61/120 126/66/126 119/64/119
f 120/61/120 128/59/128 127/63/127
f 120/61/120 138/56/138 121/58/121
f 121/58/121 128/59/128 120/61/120
f 121/58/121 138/56/138 122/53/122
f 122/53/122 128/59/128 121/58/121
f 122/53/122 130/50/130 129/54/129
f 122/53/122 138/56/138 123/51/123
f 123/51/123 130/50/130 122/53/122
f 123/51/123 138/56/138 117/48/117
f 124/47/124 130/50/130 117/48/117
f 124/47/124 131/49/131 130/50/130
f 125/39/125 131/49/131 124/47/124
f 125/69/125 133/65/133 132/68/132
f 126/66/126 133/65/133 125/69/125
f 126/66/126 134/62/134 133/65/133
f 127/63/127 126/66/126 120/61/120
f 127/63/127 134/62/134 126/66/126
f 128/59/128 134/62/134 127/63/127
f 128/59/128 136/55/136 135/60/135
f 129/54/129 128/59/128 122/53/122
f 129/54/129 136/55/136 128/59/128
f 130/50/130 131/49/131 137/52/137
f 130/50/130 136/55/136 129/54/129
f 131/49/131 139/57/139 137/52/137
f 132/43/132 131/49/131 125/39/125
f 132/43/132 139/57/139 131/49/131
f 133/65/133 139/57/139 132/68/132
f 134/62/134 139/57/139 133/65/133
f 135/60/135 134/62/134 128/59/128
f 135/60/135 139/57/139 134/62/134
f 136/55/136 139/57/139 135/60/135
f 137/52/137 136/55/136 130/50/130
f 137/52/137 139/57/139 136/55/136
